<svg xmlns="http://www.w3.org/2000/svg" width="1920" height="950"><defs><radialGradient id="A" cx="942.071" cy="481.122" fx="942.071" fy="481.122" r="458.151" spreadMethod="pad" gradientTransform="matrix(0.99999715,-0.00238793,0.00242569,1.0158137,11.001619,-0.99735516)" gradientUnits="userSpaceOnUse"><stop offset="0" stop-opacity=".008"/><stop offset=".89" stop-color="#750787"/><stop offset=".917" stop-color="#004dff"/><stop offset=".935" stop-color="#008026"/><stop offset=".956" stop-color="#ffed00"/><stop offset=".98" stop-color="#ff8c00"/><stop offset="1" stop-color="#e40303"/></radialGradient></defs><path d="M630.404 358.872c47.349-160.865 370.253-187.049 681.228-167.778 121.855 212.45 46.72 361.388 3.734 585.995-289.424 127.394-735.794-194.896-684.962-418.218z" fill="#467fb0" stroke="#fff" stroke-width="5"/><path d="M667.451 529.529c66.174-1.563 118.185-1.862 185.783 8.758 173.815 27.076 301.802 69.487 496.286 92.579l-34.154 146.224c-255.703 98.127-543.889-84.473-647.915-247.561z" fill="#fffffe"/><ellipse cx="972.737" cy="340.487" rx="51.523" ry="29.821" transform="rotate(7.775)" fill="#000001" stroke="#a75346" stroke-width="5.1"/><ellipse cx="934.573" cy="467.058" rx="8.797" ry="9.399" fill="#fffffe"/><path d="M768.66 642.436c124.789.263 229.022 20.909 362.683 42.454-81.686 17.247-164.823 27.209-247.535 31.447-42.452-21.199-82-49.731-115.148-73.902z" fill="#bd8479"/><g fill="#fff"><path d="M803.877 665.01c9.363-.319 14.18-12.11 15.678-22.286-5.348.06-19.929-3.701-32.047-3.731-.309 7.013 6.955 25.761 16.368 26.017z"/><path d="M781.294 653.59c6.513-5.948 5.174-5.812 6.814-11.669-5.348.06-8.723-.073-20.841-.103 6.748 5.729 6.825 4.699 14.028 11.771zm56.5 15.407c9.363-.319 16.989-14.627 18.488-24.803-5.348.06-24.609-1.441-36.727-1.471-.309 7.013 8.826 26.018 18.239 26.273z"/><path d="M874.521 672.308c9.363-.341 16.989-15.651 18.488-26.54-5.348.064-24.609-1.542-36.727-1.574-.309 7.504 8.826 27.84 18.239 28.114z"/><path d="M910.947 676.649c9.363-.354 16.989-16.217 18.488-27.5-5.348.066-24.609-1.598-36.727-1.63-.309 7.776 8.826 28.847 18.239 29.13z"/><path d="M946.256 682.534c9.363-.354 16.164-14.668 17.663-25.95-5.348.066-23.784-3.147-35.902-3.18-.309 7.776 8.826 28.847 18.239 29.13z"/><path d="M982.243 687.115c9.363-.354 15.923-13.296 17.422-24.578-5.348.066-23.627-5.92-35.745-5.953-.309 7.776 8.911 30.248 18.324 30.531z"/><path d="M1017.904 691.666c9.363-.354 14.868-13.189 16.367-24.471-5.348.066-22.488-4.626-34.606-4.659-.309 7.776 8.826 28.847 18.239 29.13z"/><path d="M1052.02 694.836c9.362-.354 15.43-12.752 16.929-24.034-5.348.066-22.56-3.574-34.678-3.606-.31 7.776 8.336 27.357 17.749 27.641z"/><path d="M1084.181 691.609c8.757-2.071 13.427-10.368 14.339-18.414-5.348.066-17.453-2.362-29.571-2.394-.396 6 4.9 19.099 15.232 20.808z"/></g><circle cx="954.237" cy="485.483" r="438.151" fill="none" stroke="url(#A)" stroke-width="60"/></svg>